<?xml version="1.0" encoding="UTF-8"?>
<!DOCTYPE svg PUBLIC "-//W3C//DTD SVG 1.1//EN"
    "http://www.w3.org/Graphics/SVG/1.1/DTD/svg11.dtd"><svg xmlns="http://www.w3.org/2000/svg" width="800.0" height="800.0" version="1.11.1" xmlns:xlink="http://www.w3.org/1999/xlink"><rect fill="white" y="0" x="0" width="800.0" height="800.0"/><line x2="400.0" stroke="black" y1="0.0" y2="10.0" x1="400.0" stroke-width="5.0"/><line x2="400.0" stroke="black" y1="10.0" y2="20.0" x1="400.0" stroke-width="5.0"/><line x2="400.0" stroke="black" y1="20.0" y2="30.0" x1="400.0" stroke-width="5.0"/><line x2="400.0" stroke="black" y1="30.0" y2="40.0" x1="400.0" stroke-width="5.0"/><line x2="400.0" stroke="black" y1="40.0" y2="50.0" x1="400.0" stroke-width="5.0"/><line x2="400.0" stroke="black" y1="50.0" y2="60.0" x1="400.0" stroke-width="5.0"/><line x2="400.0" stroke="black" y1="60.0" y2="70.0" x1="400.0" stroke-width="5.0"/><line x2="400.0" stroke="black" y1="70.0" y2="80.0" x1="400.0" stroke-width="5.0"/><line x2="400.0" stroke="black" y1="80.0" y2="90.0" x1="400.0" stroke-width="5.0"/><line x2="400.0" stroke="black" y1="90.0" y2="100.0" x1="400.0" stroke-width="5.0"/><line x2="400.0" stroke="black" y1="100.0" y2="110.0" x1="400.0" stroke-width="5.0"/><line x2="400.0" stroke="black" y1="110.0" y2="120.0" x1="400.0" stroke-width="5.0"/><line x2="400.0" stroke="black" y1="120.0" y2="130.0" x1="400.0" stroke-width="5.0"/><line x2="400.0" stroke="black" y1="130.0" y2="140.0" x1="400.0" stroke-width="5.0"/><line x2="400.0" stroke="black" y1="140.0" y2="150.0" x1="400.0" stroke-width="5.0"/><line x2="400.0" stroke="black" y1="150.0" y2="160.0" x1="400.0" stroke-width="5.0"/><line x2="400.0" stroke="black" y1="160.0" y2="170.0" x1="400.0" stroke-width="5.0"/><line x2="400.0" stroke="black" y1="170.0" y2="180.0" x1="400.0" stroke-width="5.0"/><line x2="400.0" stroke="black" y1="180.0" y2="190.0" x1="400.0" stroke-width="5.0"/><line x2="400.0" stroke="black" y1="190.0" y2="200.0" x1="400.0" stroke-width="5.0"/><line x2="400.0" stroke="black" y1="200.0" y2="210.0" x1="400.0" stroke-width="5.0"/><line x2="400.0" stroke="black" y1="210.0" y2="220.0" x1="400.0" stroke-width="5.0"/><line x2="400.0" stroke="black" y1="220.0" y2="230.0" x1="400.0" stroke-width="5.0"/><line x2="400.0" stroke="black" y1="230.0" y2="240.0" x1="400.0" stroke-width="5.0"/><line x2="400.0" stroke="black" y1="240.0" y2="250.0" x1="400.0" stroke-width="5.0"/><line x2="400.0" stroke="black" y1="250.0" y2="260.0" x1="400.0" stroke-width="5.0"/><line x2="400.0" stroke="black" y1="260.0" y2="270.0" x1="400.0" stroke-width="5.0"/><line x2="400.0" stroke="black" y1="270.0" y2="280.0" x1="400.0" stroke-width="5.0"/><line x2="400.0" stroke="black" y1="280.0" y2="290.0" x1="400.0" stroke-width="5.0"/><line x2="400.0" stroke="black" y1="290.0" y2="300.0" x1="400.0" stroke-width="5.0"/><line x2="400.0" stroke="black" y1="300.0" y2="310.0" x1="400.0" stroke-width="5.0"/><line x2="400.0" stroke="black" y1="310.0" y2="320.0" x1="400.0" stroke-width="5.0"/><line x2="392.92892" stroke="black" y1="320.0" y2="327.07108" x1="400.0" stroke-width="5.0"/><line x2="385.85785" stroke="black" y1="327.07108" y2="334.14215" x1="392.92892" stroke-width="5.0"/><line x2="378.78677" stroke="black" y1="334.14215" y2="341.21323" x1="385.85785" stroke-width="5.0"/><line x2="371.7157" stroke="black" y1="341.21323" y2="348.2843" x1="378.78677" stroke-width="5.0"/><line x2="364.64462" stroke="black" y1="348.2843" y2="355.35538" x1="371.7157" stroke-width="5.0"/><line x2="357.57355" stroke="black" y1="355.35538" y2="362.42645" x1="364.64462" stroke-width="5.0"/><line x2="350.50247" stroke="black" y1="362.42645" y2="369.49753" x1="357.57355" stroke-width="5.0"/><line x2="343.4314" stroke="black" y1="369.49753" y2="376.5686" x1="350.50247" stroke-width="5.0"/><line x2="336.36032" stroke="black" y1="376.5686" y2="383.63968" x1="343.4314" stroke-width="5.0"/><line x2="329.28925" stroke="black" y1="383.63968" y2="390.71075" x1="336.36032" stroke-width="5.0"/><line x2="322.21817" stroke="black" y1="390.71075" y2="397.78183" x1="329.28925" stroke-width="5.0"/><line x2="315.1471" stroke="black" y1="397.78183" y2="404.8529" x1="322.21817" stroke-width="5.0"/><line x2="308.07602" stroke="black" y1="404.8529" y2="411.92398" x1="315.1471" stroke-width="5.0"/><line x2="301.00494" stroke="black" y1="411.92398" y2="418.99506" x1="308.07602" stroke-width="5.0"/><line x2="293.93387" stroke="black" y1="418.99506" y2="426.06613" x1="301.00494" stroke-width="5.0"/><line x2="286.8628" stroke="black" y1="426.06613" y2="433.1372" x1="293.93387" stroke-width="5.0"/><line x2="276.8628" stroke="black" y1="433.1372" y2="433.1372" x1="286.8628" stroke-width="5.0"/><line x2="266.8628" stroke="black" y1="433.1372" y2="433.1372" x1="276.8628" stroke-width="5.0"/><line x2="256.8628" stroke="black" y1="433.1372" y2="433.1372" x1="266.8628" stroke-width="5.0"/><line x2="246.8628" stroke="black" y1="433.1372" y2="433.1372" x1="256.8628" stroke-width="5.0"/><line x2="236.8628" stroke="black" y1="433.1372" y2="433.1372" x1="246.8628" stroke-width="5.0"/><line x2="226.8628" stroke="black" y1="433.1372" y2="433.1372" x1="236.8628" stroke-width="5.0"/><line x2="216.8628" stroke="black" y1="433.1372" y2="433.1372" x1="226.8628" stroke-width="5.0"/><line x2="206.8628" stroke="black" y1="433.1372" y2="433.1372" x1="216.8628" stroke-width="5.0"/><line x2="199.79172" stroke="black" y1="433.1372" y2="426.06613" x1="206.8628" stroke-width="5.0"/><line x2="192.72064" stroke="black" y1="426.06613" y2="418.99506" x1="199.79172" stroke-width="5.0"/><line x2="185.64957" stroke="black" y1="418.99506" y2="411.92398" x1="192.72064" stroke-width="5.0"/><line x2="178.57849" stroke="black" y1="411.92398" y2="404.8529" x1="185.64957" stroke-width="5.0"/><line x2="178.57849" stroke="black" y1="404.8529" y2="394.8529" x1="178.57849" stroke-width="5.0"/><line x2="178.57849" stroke="black" y1="394.8529" y2="384.8529" x1="178.57849" stroke-width="5.0"/><line x2="185.64957" stroke="black" y1="384.8529" y2="377.78183" x1="178.57849" stroke-width="5.0"/><circle fill="green" cx="195.64957" r="5.0" cy="377.78183"/><line x2="195.64957" stroke="black" y1="377.78183" y2="377.78183" x1="185.64957" stroke-width="5.0"/><circle fill="green" cx="185.64957" r="5.0" cy="367.78183"/><line x2="185.64957" stroke="black" y1="377.78183" y2="367.78183" x1="185.64957" stroke-width="5.0"/><line x2="171.50742" stroke="black" y1="384.8529" y2="377.78183" x1="178.57849" stroke-width="5.0"/><circle fill="green" cx="171.50742" r="5.0" cy="367.78183"/><line x2="171.50742" stroke="black" y1="377.78183" y2="367.78183" x1="171.50742" stroke-width="5.0"/><circle fill="green" cx="161.50742" r="5.0" cy="377.78183"/><line x2="161.50742" stroke="black" y1="377.78183" y2="377.78183" x1="171.50742" stroke-width="5.0"/><line x2="168.57849" stroke="black" y1="404.8529" y2="404.8529" x1="178.57849" stroke-width="5.0"/><line x2="158.57849" stroke="black" y1="404.8529" y2="404.8529" x1="168.57849" stroke-width="5.0"/><line x2="151.50742" stroke="black" y1="404.8529" y2="397.78183" x1="158.57849" stroke-width="5.0"/><circle fill="green" cx="151.50742" r="5.0" cy="387.78183"/><line x2="151.50742" stroke="black" y1="397.78183" y2="387.78183" x1="151.50742" stroke-width="5.0"/><circle fill="green" cx="141.50742" r="5.0" cy="397.78183"/><line x2="141.50742" stroke="black" y1="397.78183" y2="397.78183" x1="151.50742" stroke-width="5.0"/><line x2="151.50743" stroke="black" y1="404.8529" y2="411.92398" x1="158.57849" stroke-width="5.0"/><circle fill="green" cx="141.50743" r="5.0" cy="411.92398"/><line x2="141.50743" stroke="black" y1="411.92398" y2="411.92398" x1="151.50743" stroke-width="5.0"/><circle fill="green" cx="151.50743" r="5.0" cy="421.92398"/><line x2="151.50743" stroke="black" y1="411.92398" y2="421.92398" x1="151.50743" stroke-width="5.0"/><line x2="199.79172" stroke="black" y1="433.1372" y2="440.20828" x1="206.8628" stroke-width="5.0"/><line x2="192.72064" stroke="black" y1="440.20828" y2="447.27936" x1="199.79172" stroke-width="5.0"/><line x2="185.64957" stroke="black" y1="447.27936" y2="454.35043" x1="192.72064" stroke-width="5.0"/><line x2="178.57849" stroke="black" y1="454.35043" y2="461.4215" x1="185.64957" stroke-width="5.0"/><line x2="168.57849" stroke="black" y1="461.4215" y2="461.4215" x1="178.57849" stroke-width="5.0"/><line x2="158.57849" stroke="black" y1="461.4215" y2="461.4215" x1="168.57849" stroke-width="5.0"/><line x2="151.50742" stroke="black" y1="461.4215" y2="454.35043" x1="158.57849" stroke-width="5.0"/><circle fill="green" cx="151.50742" r="5.0" cy="444.35043"/><line x2="151.50742" stroke="black" y1="454.35043" y2="444.35043" x1="151.50742" stroke-width="5.0"/><circle fill="green" cx="141.50742" r="5.0" cy="454.35043"/><line x2="141.50742" stroke="black" y1="454.35043" y2="454.35043" x1="151.50742" stroke-width="5.0"/><line x2="151.50742" stroke="black" y1="461.4215" y2="468.49258" x1="158.57849" stroke-width="5.0"/><circle fill="green" cx="141.50742" r="5.0" cy="468.49258"/><line x2="141.50742" stroke="black" y1="468.49258" y2="468.49258" x1="151.50742" stroke-width="5.0"/><circle fill="green" cx="151.50742" r="5.0" cy="478.49258"/><line x2="151.50742" stroke="black" y1="468.49258" y2="478.49258" x1="151.50742" stroke-width="5.0"/><line x2="178.57849" stroke="black" y1="461.4215" y2="471.4215" x1="178.57849" stroke-width="5.0"/><line x2="178.57849" stroke="black" y1="471.4215" y2="481.4215" x1="178.57849" stroke-width="5.0"/><line x2="171.50742" stroke="black" y1="481.4215" y2="488.49258" x1="178.57849" stroke-width="5.0"/><circle fill="green" cx="161.50742" r="5.0" cy="488.49258"/><line x2="161.50742" stroke="black" y1="488.49258" y2="488.49258" x1="171.50742" stroke-width="5.0"/><circle fill="green" cx="171.50742" r="5.0" cy="498.49258"/><line x2="171.50742" stroke="black" y1="488.49258" y2="498.49258" x1="171.50742" stroke-width="5.0"/><line x2="185.64957" stroke="black" y1="481.4215" y2="488.49258" x1="178.57849" stroke-width="5.0"/><circle fill="green" cx="185.64957" r="5.0" cy="498.49258"/><line x2="185.64957" stroke="black" y1="488.49258" y2="498.49258" x1="185.64957" stroke-width="5.0"/><circle fill="green" cx="195.64957" r="5.0" cy="488.49258"/><line x2="195.64957" stroke="black" y1="488.49258" y2="488.49258" x1="185.64957" stroke-width="5.0"/><line x2="286.8628" stroke="black" y1="433.1372" y2="443.1372" x1="286.8628" stroke-width="5.0"/><line x2="286.8628" stroke="black" y1="443.1372" y2="453.1372" x1="286.8628" stroke-width="5.0"/><line x2="286.8628" stroke="black" y1="453.1372" y2="463.1372" x1="286.8628" stroke-width="5.0"/><line x2="286.8628" stroke="black" y1="463.1372" y2="473.1372" x1="286.8628" stroke-width="5.0"/><line x2="286.8628" stroke="black" y1="473.1372" y2="483.1372" x1="286.8628" stroke-width="5.0"/><line x2="286.8628" stroke="black" y1="483.1372" y2="493.1372" x1="286.8628" stroke-width="5.0"/><line x2="286.8628" stroke="black" y1="493.1372" y2="503.1372" x1="286.8628" stroke-width="5.0"/><line x2="286.8628" stroke="black" y1="503.1372" y2="513.1372" x1="286.8628" stroke-width="5.0"/><line x2="279.79172" stroke="black" y1="513.1372" y2="520.20825" x1="286.8628" stroke-width="5.0"/><line x2="272.72064" stroke="black" y1="520.20825" y2="527.2793" x1="279.79172" stroke-width="5.0"/><line x2="265.64957" stroke="black" y1="527.2793" y2="534.35034" x1="272.72064" stroke-width="5.0"/><line x2="258.5785" stroke="black" y1="534.35034" y2="541.4214" x1="265.64957" stroke-width="5.0"/><line x2="248.57849" stroke="black" y1="541.4214" y2="541.4214" x1="258.5785" stroke-width="5.0"/><line x2="238.57849" stroke="black" y1="541.4214" y2="541.4214" x1="248.57849" stroke-width="5.0"/><line x2="231.50742" stroke="black" y1="541.4214" y2="534.35034" x1="238.57849" stroke-width="5.0"/><circle fill="green" cx="231.50742" r="5.0" cy="524.35034"/><line x2="231.50742" stroke="black" y1="534.35034" y2="524.35034" x1="231.50742" stroke-width="5.0"/><circle fill="green" cx="221.50742" r="5.0" cy="534.35034"/><line x2="221.50742" stroke="black" y1="534.35034" y2="534.35034" x1="231.50742" stroke-width="5.0"/><line x2="231.50742" stroke="black" y1="541.4214" y2="548.49243" x1="238.57849" stroke-width="5.0"/><circle fill="green" cx="221.50742" r="5.0" cy="548.49243"/><line x2="221.50742" stroke="black" y1="548.49243" y2="548.49243" x1="231.50742" stroke-width="5.0"/><circle fill="green" cx="231.50742" r="5.0" cy="558.49243"/><line x2="231.50742" stroke="black" y1="548.49243" y2="558.49243" x1="231.50742" stroke-width="5.0"/><line x2="258.5785" stroke="black" y1="541.4214" y2="551.4214" x1="258.5785" stroke-width="5.0"/><line x2="258.5785" stroke="black" y1="551.4214" y2="561.4214" x1="258.5785" stroke-width="5.0"/><line x2="251.50742" stroke="black" y1="561.4214" y2="568.49243" x1="258.5785" stroke-width="5.0"/><circle fill="green" cx="241.50742" r="5.0" cy="568.49243"/><line x2="241.50742" stroke="black" y1="568.49243" y2="568.49243" x1="251.50742" stroke-width="5.0"/><circle fill="green" cx="251.50742" r="5.0" cy="578.49243"/><line x2="251.50742" stroke="black" y1="568.49243" y2="578.49243" x1="251.50742" stroke-width="5.0"/><line x2="265.64957" stroke="black" y1="561.4214" y2="568.49243" x1="258.5785" stroke-width="5.0"/><circle fill="green" cx="265.64957" r="5.0" cy="578.49243"/><line x2="265.64957" stroke="black" y1="568.49243" y2="578.49243" x1="265.64957" stroke-width="5.0"/><circle fill="green" cx="275.64957" r="5.0" cy="568.49243"/><line x2="275.64957" stroke="black" y1="568.49243" y2="568.49243" x1="265.64957" stroke-width="5.0"/><line x2="293.93387" stroke="black" y1="513.1372" y2="520.20825" x1="286.8628" stroke-width="5.0"/><line x2="301.00494" stroke="black" y1="520.20825" y2="527.2793" x1="293.93387" stroke-width="5.0"/><line x2="308.07602" stroke="black" y1="527.2793" y2="534.35034" x1="301.00494" stroke-width="5.0"/><line x2="315.1471" stroke="black" y1="534.35034" y2="541.4214" x1="308.07602" stroke-width="5.0"/><line x2="315.1471" stroke="black" y1="541.4214" y2="551.4214" x1="315.1471" stroke-width="5.0"/><line x2="315.1471" stroke="black" y1="551.4214" y2="561.4214" x1="315.1471" stroke-width="5.0"/><line x2="308.07602" stroke="black" y1="561.4214" y2="568.49243" x1="315.1471" stroke-width="5.0"/><circle fill="green" cx="298.07602" r="5.0" cy="568.49243"/><line x2="298.07602" stroke="black" y1="568.49243" y2="568.49243" x1="308.07602" stroke-width="5.0"/><circle fill="green" cx="308.07602" r="5.0" cy="578.49243"/><line x2="308.07602" stroke="black" y1="568.49243" y2="578.49243" x1="308.07602" stroke-width="5.0"/><line x2="322.21817" stroke="black" y1="561.4214" y2="568.49243" x1="315.1471" stroke-width="5.0"/><circle fill="green" cx="322.21817" r="5.0" cy="578.49243"/><line x2="322.21817" stroke="black" y1="568.49243" y2="578.49243" x1="322.21817" stroke-width="5.0"/><circle fill="green" cx="332.21817" r="5.0" cy="568.49243"/><line x2="332.21817" stroke="black" y1="568.49243" y2="568.49243" x1="322.21817" stroke-width="5.0"/><line x2="325.1471" stroke="black" y1="541.4214" y2="541.4214" x1="315.1471" stroke-width="5.0"/><line x2="335.1471" stroke="black" y1="541.4214" y2="541.4214" x1="325.1471" stroke-width="5.0"/><line x2="342.21817" stroke="black" y1="541.4214" y2="548.49243" x1="335.1471" stroke-width="5.0"/><circle fill="green" cx="342.21817" r="5.0" cy="558.49243"/><line x2="342.21817" stroke="black" y1="548.49243" y2="558.49243" x1="342.21817" stroke-width="5.0"/><circle fill="green" cx="352.21817" r="5.0" cy="548.49243"/><line x2="352.21817" stroke="black" y1="548.49243" y2="548.49243" x1="342.21817" stroke-width="5.0"/><line x2="342.21817" stroke="black" y1="541.4214" y2="534.35034" x1="335.1471" stroke-width="5.0"/><circle fill="green" cx="352.21817" r="5.0" cy="534.35034"/><line x2="352.21817" stroke="black" y1="534.35034" y2="534.35034" x1="342.21817" stroke-width="5.0"/><circle fill="green" cx="342.21817" r="5.0" cy="524.35034"/><line x2="342.21817" stroke="black" y1="534.35034" y2="524.35034" x1="342.21817" stroke-width="5.0"/><line x2="407.07108" stroke="black" y1="320.0" y2="327.07108" x1="400.0" stroke-width="5.0"/><line x2="414.14215" stroke="black" y1="327.07108" y2="334.14215" x1="407.07108" stroke-width="5.0"/><line x2="421.21323" stroke="black" y1="334.14215" y2="341.21323" x1="414.14215" stroke-width="5.0"/><line x2="428.2843" stroke="black" y1="341.21323" y2="348.2843" x1="421.21323" stroke-width="5.0"/><line x2="435.35538" stroke="black" y1="348.2843" y2="355.35538" x1="428.2843" stroke-width="5.0"/><line x2="442.42645" stroke="black" y1="355.35538" y2="362.42645" x1="435.35538" stroke-width="5.0"/><line x2="449.49753" stroke="black" y1="362.42645" y2="369.49753" x1="442.42645" stroke-width="5.0"/><line x2="456.5686" stroke="black" y1="369.49753" y2="376.5686" x1="449.49753" stroke-width="5.0"/><line x2="463.63968" stroke="black" y1="376.5686" y2="383.63968" x1="456.5686" stroke-width="5.0"/><line x2="470.71075" stroke="black" y1="383.63968" y2="390.71075" x1="463.63968" stroke-width="5.0"/><line x2="477.78183" stroke="black" y1="390.71075" y2="397.78183" x1="470.71075" stroke-width="5.0"/><line x2="484.8529" stroke="black" y1="397.78183" y2="404.8529" x1="477.78183" stroke-width="5.0"/><line x2="491.92398" stroke="black" y1="404.8529" y2="411.92398" x1="484.8529" stroke-width="5.0"/><line x2="498.99506" stroke="black" y1="411.92398" y2="418.99506" x1="491.92398" stroke-width="5.0"/><line x2="506.06613" stroke="black" y1="418.99506" y2="426.06613" x1="498.99506" stroke-width="5.0"/><line x2="513.1372" stroke="black" y1="426.06613" y2="433.1372" x1="506.06613" stroke-width="5.0"/><line x2="513.1372" stroke="black" y1="433.1372" y2="443.1372" x1="513.1372" stroke-width="5.0"/><line x2="513.1372" stroke="black" y1="443.1372" y2="453.1372" x1="513.1372" stroke-width="5.0"/><line x2="513.1372" stroke="black" y1="453.1372" y2="463.1372" x1="513.1372" stroke-width="5.0"/><line x2="513.1372" stroke="black" y1="463.1372" y2="473.1372" x1="513.1372" stroke-width="5.0"/><line x2="513.1372" stroke="black" y1="473.1372" y2="483.1372" x1="513.1372" stroke-width="5.0"/><line x2="513.1372" stroke="black" y1="483.1372" y2="493.1372" x1="513.1372" stroke-width="5.0"/><line x2="513.1372" stroke="black" y1="493.1372" y2="503.1372" x1="513.1372" stroke-width="5.0"/><line x2="513.1372" stroke="black" y1="503.1372" y2="513.1372" x1="513.1372" stroke-width="5.0"/><line x2="506.06613" stroke="black" y1="513.1372" y2="520.20825" x1="513.1372" stroke-width="5.0"/><line x2="498.99506" stroke="black" y1="520.20825" y2="527.2793" x1="506.06613" stroke-width="5.0"/><line x2="491.92398" stroke="black" y1="527.2793" y2="534.35034" x1="498.99506" stroke-width="5.0"/><line x2="484.8529" stroke="black" y1="534.35034" y2="541.4214" x1="491.92398" stroke-width="5.0"/><line x2="474.8529" stroke="black" y1="541.4214" y2="541.4214" x1="484.8529" stroke-width="5.0"/><line x2="464.8529" stroke="black" y1="541.4214" y2="541.4214" x1="474.8529" stroke-width="5.0"/><line x2="457.78183" stroke="black" y1="541.4214" y2="534.35034" x1="464.8529" stroke-width="5.0"/><circle fill="green" cx="457.78183" r="5.0" cy="524.35034"/><line x2="457.78183" stroke="black" y1="534.35034" y2="524.35034" x1="457.78183" stroke-width="5.0"/><circle fill="green" cx="447.78183" r="5.0" cy="534.35034"/><line x2="447.78183" stroke="black" y1="534.35034" y2="534.35034" x1="457.78183" stroke-width="5.0"/><line x2="457.78183" stroke="black" y1="541.4214" y2="548.49243" x1="464.8529" stroke-width="5.0"/><circle fill="green" cx="447.78183" r="5.0" cy="548.49243"/><line x2="447.78183" stroke="black" y1="548.49243" y2="548.49243" x1="457.78183" stroke-width="5.0"/><circle fill="green" cx="457.78183" r="5.0" cy="558.49243"/><line x2="457.78183" stroke="black" y1="548.49243" y2="558.49243" x1="457.78183" stroke-width="5.0"/><line x2="484.8529" stroke="black" y1="541.4214" y2="551.4214" x1="484.8529" stroke-width="5.0"/><line x2="484.8529" stroke="black" y1="551.4214" y2="561.4214" x1="484.8529" stroke-width="5.0"/><line x2="477.78183" stroke="black" y1="561.4214" y2="568.49243" x1="484.8529" stroke-width="5.0"/><circle fill="green" cx="467.78183" r="5.0" cy="568.49243"/><line x2="467.78183" stroke="black" y1="568.49243" y2="568.49243" x1="477.78183" stroke-width="5.0"/><circle fill="green" cx="477.78183" r="5.0" cy="578.49243"/><line x2="477.78183" stroke="black" y1="568.49243" y2="578.49243" x1="477.78183" stroke-width="5.0"/><line x2="491.92398" stroke="black" y1="561.4214" y2="568.49243" x1="484.8529" stroke-width="5.0"/><circle fill="green" cx="491.92398" r="5.0" cy="578.49243"/><line x2="491.92398" stroke="black" y1="568.49243" y2="578.49243" x1="491.92398" stroke-width="5.0"/><circle fill="green" cx="501.92398" r="5.0" cy="568.49243"/><line x2="501.92398" stroke="black" y1="568.49243" y2="568.49243" x1="491.92398" stroke-width="5.0"/><line x2="520.20825" stroke="black" y1="513.1372" y2="520.20825" x1="513.1372" stroke-width="5.0"/><line x2="527.2793" stroke="black" y1="520.20825" y2="527.2793" x1="520.20825" stroke-width="5.0"/><line x2="534.35034" stroke="black" y1="527.2793" y2="534.35034" x1="527.2793" stroke-width="5.0"/><line x2="541.4214" stroke="black" y1="534.35034" y2="541.4214" x1="534.35034" stroke-width="5.0"/><line x2="541.4214" stroke="black" y1="541.4214" y2="551.4214" x1="541.4214" stroke-width="5.0"/><line x2="541.4214" stroke="black" y1="551.4214" y2="561.4214" x1="541.4214" stroke-width="5.0"/><line x2="534.35034" stroke="black" y1="561.4214" y2="568.49243" x1="541.4214" stroke-width="5.0"/><circle fill="green" cx="524.35034" r="5.0" cy="568.49243"/><line x2="524.35034" stroke="black" y1="568.49243" y2="568.49243" x1="534.35034" stroke-width="5.0"/><circle fill="green" cx="534.35034" r="5.0" cy="578.49243"/><line x2="534.35034" stroke="black" y1="568.49243" y2="578.49243" x1="534.35034" stroke-width="5.0"/><line x2="548.49243" stroke="black" y1="561.4214" y2="568.49243" x1="541.4214" stroke-width="5.0"/><circle fill="green" cx="548.49243" r="5.0" cy="578.49243"/><line x2="548.49243" stroke="black" y1="568.49243" y2="578.49243" x1="548.49243" stroke-width="5.0"/><circle fill="green" cx="558.49243" r="5.0" cy="568.49243"/><line x2="558.49243" stroke="black" y1="568.49243" y2="568.49243" x1="548.49243" stroke-width="5.0"/><line x2="551.4214" stroke="black" y1="541.4214" y2="541.4214" x1="541.4214" stroke-width="5.0"/><line x2="561.4214" stroke="black" y1="541.4214" y2="541.4214" x1="551.4214" stroke-width="5.0"/><line x2="568.49243" stroke="black" y1="541.4214" y2="548.49243" x1="561.4214" stroke-width="5.0"/><circle fill="green" cx="568.49243" r="5.0" cy="558.49243"/><line x2="568.49243" stroke="black" y1="548.49243" y2="558.49243" x1="568.49243" stroke-width="5.0"/><circle fill="green" cx="578.49243" r="5.0" cy="548.49243"/><line x2="578.49243" stroke="black" y1="548.49243" y2="548.49243" x1="568.49243" stroke-width="5.0"/><line x2="568.49243" stroke="black" y1="541.4214" y2="534.35034" x1="561.4214" stroke-width="5.0"/><circle fill="green" cx="578.49243" r="5.0" cy="534.35034"/><line x2="578.49243" stroke="black" y1="534.35034" y2="534.35034" x1="568.49243" stroke-width="5.0"/><circle fill="green" cx="568.49243" r="5.0" cy="524.35034"/><line x2="568.49243" stroke="black" y1="534.35034" y2="524.35034" x1="568.49243" stroke-width="5.0"/><line x2="523.1372" stroke="black" y1="433.1372" y2="433.1372" x1="513.1372" stroke-width="5.0"/><line x2="533.1372" stroke="black" y1="433.1372" y2="433.1372" x1="523.1372" stroke-width="5.0"/><line x2="543.1372" stroke="black" y1="433.1372" y2="433.1372" x1="533.1372" stroke-width="5.0"/><line x2="553.1372" stroke="black" y1="433.1372" y2="433.1372" x1="543.1372" stroke-width="5.0"/><line x2="563.1372" stroke="black" y1="433.1372" y2="433.1372" x1="553.1372" stroke-width="5.0"/><line x2="573.1372" stroke="black" y1="433.1372" y2="433.1372" x1="563.1372" stroke-width="5.0"/><line x2="583.1372" stroke="black" y1="433.1372" y2="433.1372" x1="573.1372" stroke-width="5.0"/><line x2="593.1372" stroke="black" y1="433.1372" y2="433.1372" x1="583.1372" stroke-width="5.0"/><line x2="600.20825" stroke="black" y1="433.1372" y2="440.20828" x1="593.1372" stroke-width="5.0"/><line x2="607.2793" stroke="black" y1="440.20828" y2="447.27936" x1="600.20825" stroke-width="5.0"/><line x2="614.35034" stroke="black" y1="447.27936" y2="454.35043" x1="607.2793" stroke-width="5.0"/><line x2="621.4214" stroke="black" y1="454.35043" y2="461.4215" x1="614.35034" stroke-width="5.0"/><line x2="621.4214" stroke="black" y1="461.4215" y2="471.4215" x1="621.4214" stroke-width="5.0"/><line x2="621.4214" stroke="black" y1="471.4215" y2="481.4215" x1="621.4214" stroke-width="5.0"/><line x2="614.35034" stroke="black" y1="481.4215" y2="488.49258" x1="621.4214" stroke-width="5.0"/><circle fill="green" cx="604.35034" r="5.0" cy="488.49258"/><line x2="604.35034" stroke="black" y1="488.49258" y2="488.49258" x1="614.35034" stroke-width="5.0"/><circle fill="green" cx="614.35034" r="5.0" cy="498.49258"/><line x2="614.35034" stroke="black" y1="488.49258" y2="498.49258" x1="614.35034" stroke-width="5.0"/><line x2="628.49243" stroke="black" y1="481.4215" y2="488.49258" x1="621.4214" stroke-width="5.0"/><circle fill="green" cx="628.49243" r="5.0" cy="498.49258"/><line x2="628.49243" stroke="black" y1="488.49258" y2="498.49258" x1="628.49243" stroke-width="5.0"/><circle fill="green" cx="638.49243" r="5.0" cy="488.49258"/><line x2="638.49243" stroke="black" y1="488.49258" y2="488.49258" x1="628.49243" stroke-width="5.0"/><line x2="631.4214" stroke="black" y1="461.4215" y2="461.4215" x1="621.4214" stroke-width="5.0"/><line x2="641.4214" stroke="black" y1="461.4215" y2="461.4215" x1="631.4214" stroke-width="5.0"/><line x2="648.49243" stroke="black" y1="461.4215" y2="468.49258" x1="641.4214" stroke-width="5.0"/><circle fill="green" cx="648.49243" r="5.0" cy="478.49258"/><line x2="648.49243" stroke="black" y1="468.49258" y2="478.49258" x1="648.49243" stroke-width="5.0"/><circle fill="green" cx="658.49243" r="5.0" cy="468.49258"/><line x2="658.49243" stroke="black" y1="468.49258" y2="468.49258" x1="648.49243" stroke-width="5.0"/><line x2="648.49243" stroke="black" y1="461.4215" y2="454.35043" x1="641.4214" stroke-width="5.0"/><circle fill="green" cx="658.49243" r="5.0" cy="454.35043"/><line x2="658.49243" stroke="black" y1="454.35043" y2="454.35043" x1="648.49243" stroke-width="5.0"/><circle fill="green" cx="648.49243" r="5.0" cy="444.35043"/><line x2="648.49243" stroke="black" y1="454.35043" y2="444.35043" x1="648.49243" stroke-width="5.0"/><line x2="600.20825" stroke="black" y1="433.1372" y2="426.06613" x1="593.1372" stroke-width="5.0"/><line x2="607.2793" stroke="black" y1="426.06613" y2="418.99506" x1="600.20825" stroke-width="5.0"/><line x2="614.35034" stroke="black" y1="418.99506" y2="411.92398" x1="607.2793" stroke-width="5.0"/><line x2="621.4214" stroke="black" y1="411.92398" y2="404.8529" x1="614.35034" stroke-width="5.0"/><line x2="631.4214" stroke="black" y1="404.8529" y2="404.8529" x1="621.4214" stroke-width="5.0"/><line x2="641.4214" stroke="black" y1="404.8529" y2="404.8529" x1="631.4214" stroke-width="5.0"/><line x2="648.49243" stroke="black" y1="404.8529" y2="411.92398" x1="641.4214" stroke-width="5.0"/><circle fill="green" cx="648.49243" r="5.0" cy="421.92398"/><line x2="648.49243" stroke="black" y1="411.92398" y2="421.92398" x1="648.49243" stroke-width="5.0"/><circle fill="green" cx="658.49243" r="5.0" cy="411.92398"/><line x2="658.49243" stroke="black" y1="411.92398" y2="411.92398" x1="648.49243" stroke-width="5.0"/><line x2="648.49243" stroke="black" y1="404.8529" y2="397.78183" x1="641.4214" stroke-width="5.0"/><circle fill="green" cx="658.49243" r="5.0" cy="397.78183"/><line x2="658.49243" stroke="black" y1="397.78183" y2="397.78183" x1="648.49243" stroke-width="5.0"/><circle fill="green" cx="648.49243" r="5.0" cy="387.78183"/><line x2="648.49243" stroke="black" y1="397.78183" y2="387.78183" x1="648.49243" stroke-width="5.0"/><line x2="621.4214" stroke="black" y1="404.8529" y2="394.8529" x1="621.4214" stroke-width="5.0"/><line x2="621.4214" stroke="black" y1="394.8529" y2="384.8529" x1="621.4214" stroke-width="5.0"/><line x2="628.49243" stroke="black" y1="384.8529" y2="377.78183" x1="621.4214" stroke-width="5.0"/><circle fill="green" cx="638.49243" r="5.0" cy="377.78183"/><line x2="638.49243" stroke="black" y1="377.78183" y2="377.78183" x1="628.49243" stroke-width="5.0"/><circle fill="green" cx="628.49243" r="5.0" cy="367.78183"/><line x2="628.49243" stroke="black" y1="377.78183" y2="367.78183" x1="628.49243" stroke-width="5.0"/><line x2="614.35034" stroke="black" y1="384.8529" y2="377.78183" x1="621.4214" stroke-width="5.0"/><circle fill="green" cx="614.35034" r="5.0" cy="367.78183"/><line x2="614.35034" stroke="black" y1="377.78183" y2="367.78183" x1="614.35034" stroke-width="5.0"/><circle fill="green" cx="604.35034" r="5.0" cy="377.78183"/><line x2="604.35034" stroke="black" y1="377.78183" y2="377.78183" x1="614.35034" stroke-width="5.0"/></svg>