<?xml version="1.0" encoding="UTF-8"?>
<!DOCTYPE svg PUBLIC "-//W3C//DTD SVG 1.1//EN"
    "http://www.w3.org/Graphics/SVG/1.1/DTD/svg11.dtd"><svg xmlns="http://www.w3.org/2000/svg" width="800.0" height="800.0" version="1.11.1" xmlns:xlink="http://www.w3.org/1999/xlink"><rect fill="white" y="0" x="0" width="800.0" height="800.0"/><line x2="400.0" stroke="black" y1="0.0" y2="10.0" x1="400.0" stroke-width="5.0"/><line x2="400.0" stroke="black" y1="10.0" y2="20.0" x1="400.0" stroke-width="5.0"/><line x2="400.0" stroke="black" y1="20.0" y2="30.0" x1="400.0" stroke-width="5.0"/><line x2="400.0" stroke="black" y1="30.0" y2="40.0" x1="400.0" stroke-width="5.0"/><line x2="400.0" stroke="black" y1="40.0" y2="50.0" x1="400.0" stroke-width="5.0"/><line x2="400.0" stroke="black" y1="50.0" y2="60.0" x1="400.0" stroke-width="5.0"/><line x2="400.0" stroke="black" y1="60.0" y2="70.0" x1="400.0" stroke-width="5.0"/><line x2="400.0" stroke="black" y1="70.0" y2="80.0" x1="400.0" stroke-width="5.0"/><line x2="400.0" stroke="black" y1="80.0" y2="90.0" x1="400.0" stroke-width="5.0"/><line x2="400.0" stroke="black" y1="90.0" y2="100.0" x1="400.0" stroke-width="5.0"/><line x2="400.0" stroke="black" y1="100.0" y2="110.0" x1="400.0" stroke-width="5.0"/><line x2="400.0" stroke="black" y1="110.0" y2="120.0" x1="400.0" stroke-width="5.0"/><line x2="400.0" stroke="black" y1="120.0" y2="130.0" x1="400.0" stroke-width="5.0"/><line x2="400.0" stroke="black" y1="130.0" y2="140.0" x1="400.0" stroke-width="5.0"/><line x2="400.0" stroke="black" y1="140.0" y2="150.0" x1="400.0" stroke-width="5.0"/><line x2="400.0" stroke="black" y1="150.0" y2="160.0" x1="400.0" stroke-width="5.0"/><line x2="392.92892" stroke="black" y1="160.0" y2="167.07108" x1="400.0" stroke-width="5.0"/><line x2="385.85785" stroke="black" y1="167.07108" y2="174.14215" x1="392.92892" stroke-width="5.0"/><line x2="378.78677" stroke="black" y1="174.14215" y2="181.21323" x1="385.85785" stroke-width="5.0"/><line x2="371.7157" stroke="black" y1="181.21323" y2="188.2843" x1="378.78677" stroke-width="5.0"/><line x2="364.64462" stroke="black" y1="188.2843" y2="195.35538" x1="371.7157" stroke-width="5.0"/><line x2="357.57355" stroke="black" y1="195.35538" y2="202.42645" x1="364.64462" stroke-width="5.0"/><line x2="350.50247" stroke="black" y1="202.42645" y2="209.49753" x1="357.57355" stroke-width="5.0"/><line x2="343.4314" stroke="black" y1="209.49753" y2="216.5686" x1="350.50247" stroke-width="5.0"/><line x2="333.4314" stroke="black" y1="216.5686" y2="216.5686" x1="343.4314" stroke-width="5.0"/><line x2="323.4314" stroke="black" y1="216.5686" y2="216.5686" x1="333.4314" stroke-width="5.0"/><line x2="313.4314" stroke="black" y1="216.5686" y2="216.5686" x1="323.4314" stroke-width="5.0"/><line x2="303.4314" stroke="black" y1="216.5686" y2="216.5686" x1="313.4314" stroke-width="5.0"/><line x2="296.36032" stroke="black" y1="216.5686" y2="209.49753" x1="303.4314" stroke-width="5.0"/><line x2="289.28925" stroke="black" y1="209.49753" y2="202.42645" x1="296.36032" stroke-width="5.0"/><line x2="289.28925" stroke="black" y1="202.42645" y2="192.42645" x1="289.28925" stroke-width="5.0"/><circle fill="green" cx="296.36032" r="5.0" cy="185.3554"/><line x2="296.36032" stroke="black" y1="192.42645" y2="185.3554" x1="289.28925" stroke-width="5.0"/><circle fill="green" cx="282.21817" r="5.0" cy="185.35538"/><line x2="282.21817" stroke="black" y1="192.42645" y2="185.35538" x1="289.28925" stroke-width="5.0"/><line x2="279.28925" stroke="black" y1="202.42645" y2="202.42645" x1="289.28925" stroke-width="5.0"/><circle fill="green" cx="272.21817" r="5.0" cy="195.35538"/><line x2="272.21817" stroke="black" y1="202.42645" y2="195.35538" x1="279.28925" stroke-width="5.0"/><circle fill="green" cx="272.21817" r="5.0" cy="209.49753"/><line x2="272.21817" stroke="black" y1="202.42645" y2="209.49753" x1="279.28925" stroke-width="5.0"/><line x2="296.36032" stroke="black" y1="216.5686" y2="223.63968" x1="303.4314" stroke-width="5.0"/><line x2="289.28925" stroke="black" y1="223.63968" y2="230.71075" x1="296.36032" stroke-width="5.0"/><line x2="279.28925" stroke="black" y1="230.71075" y2="230.71075" x1="289.28925" stroke-width="5.0"/><circle fill="green" cx="272.21817" r="5.0" cy="223.63968"/><line x2="272.21817" stroke="black" y1="230.71075" y2="223.63968" x1="279.28925" stroke-width="5.0"/><circle fill="green" cx="272.21817" r="5.0" cy="237.78183"/><line x2="272.21817" stroke="black" y1="230.71075" y2="237.78183" x1="279.28925" stroke-width="5.0"/><line x2="289.28925" stroke="black" y1="230.71075" y2="240.71075" x1="289.28925" stroke-width="5.0"/><circle fill="green" cx="282.21817" r="5.0" cy="247.78183"/><line x2="282.21817" stroke="black" y1="240.71075" y2="247.78183" x1="289.28925" stroke-width="5.0"/><circle fill="green" cx="296.36032" r="5.0" cy="247.78183"/><line x2="296.36032" stroke="black" y1="240.71075" y2="247.78183" x1="289.28925" stroke-width="5.0"/><line x2="343.4314" stroke="black" y1="216.5686" y2="226.5686" x1="343.4314" stroke-width="5.0"/><line x2="343.4314" stroke="black" y1="226.5686" y2="236.5686" x1="343.4314" stroke-width="5.0"/><line x2="343.4314" stroke="black" y1="236.5686" y2="246.5686" x1="343.4314" stroke-width="5.0"/><line x2="343.4314" stroke="black" y1="246.5686" y2="256.5686" x1="343.4314" stroke-width="5.0"/><line x2="336.36032" stroke="black" y1="256.5686" y2="263.63968" x1="343.4314" stroke-width="5.0"/><line x2="329.28925" stroke="black" y1="263.63968" y2="270.71075" x1="336.36032" stroke-width="5.0"/><line x2="319.28925" stroke="black" y1="270.71075" y2="270.71075" x1="329.28925" stroke-width="5.0"/><circle fill="green" cx="312.21817" r="5.0" cy="263.63968"/><line x2="312.21817" stroke="black" y1="270.71075" y2="263.63968" x1="319.28925" stroke-width="5.0"/><circle fill="green" cx="312.21817" r="5.0" cy="277.78183"/><line x2="312.21817" stroke="black" y1="270.71075" y2="277.78183" x1="319.28925" stroke-width="5.0"/><line x2="329.28925" stroke="black" y1="270.71075" y2="280.71075" x1="329.28925" stroke-width="5.0"/><circle fill="green" cx="322.21817" r="5.0" cy="287.78183"/><line x2="322.21817" stroke="black" y1="280.71075" y2="287.78183" x1="329.28925" stroke-width="5.0"/><circle fill="green" cx="336.36032" r="5.0" cy="287.78183"/><line x2="336.36032" stroke="black" y1="280.71075" y2="287.78183" x1="329.28925" stroke-width="5.0"/><line x2="350.50247" stroke="black" y1="256.5686" y2="263.63968" x1="343.4314" stroke-width="5.0"/><line x2="357.57355" stroke="black" y1="263.63968" y2="270.71075" x1="350.50247" stroke-width="5.0"/><line x2="357.57355" stroke="black" y1="270.71075" y2="280.71075" x1="357.57355" stroke-width="5.0"/><circle fill="green" cx="350.50247" r="5.0" cy="287.78183"/><line x2="350.50247" stroke="black" y1="280.71075" y2="287.78183" x1="357.57355" stroke-width="5.0"/><circle fill="green" cx="364.64462" r="5.0" cy="287.78183"/><line x2="364.64462" stroke="black" y1="280.71075" y2="287.78183" x1="357.57355" stroke-width="5.0"/><line x2="367.57355" stroke="black" y1="270.71075" y2="270.71075" x1="357.57355" stroke-width="5.0"/><circle fill="green" cx="374.64462" r="5.0" cy="277.78183"/><line x2="374.64462" stroke="black" y1="270.71075" y2="277.78183" x1="367.57355" stroke-width="5.0"/><circle fill="green" cx="374.64462" r="5.0" cy="263.63968"/><line x2="374.64462" stroke="black" y1="270.71075" y2="263.63968" x1="367.57355" stroke-width="5.0"/><line x2="407.07108" stroke="black" y1="160.0" y2="167.07108" x1="400.0" stroke-width="5.0"/><line x2="414.14215" stroke="black" y1="167.07108" y2="174.14215" x1="407.07108" stroke-width="5.0"/><line x2="421.21323" stroke="black" y1="174.14215" y2="181.21323" x1="414.14215" stroke-width="5.0"/><line x2="428.2843" stroke="black" y1="181.21323" y2="188.2843" x1="421.21323" stroke-width="5.0"/><line x2="435.35538" stroke="black" y1="188.2843" y2="195.35538" x1="428.2843" stroke-width="5.0"/><line x2="442.42645" stroke="black" y1="195.35538" y2="202.42645" x1="435.35538" stroke-width="5.0"/><line x2="449.49753" stroke="black" y1="202.42645" y2="209.49753" x1="442.42645" stroke-width="5.0"/><line x2="456.5686" stroke="black" y1="209.49753" y2="216.5686" x1="449.49753" stroke-width="5.0"/><line x2="456.5686" stroke="black" y1="216.5686" y2="226.5686" x1="456.5686" stroke-width="5.0"/><line x2="456.5686" stroke="black" y1="226.5686" y2="236.5686" x1="456.5686" stroke-width="5.0"/><line x2="456.5686" stroke="black" y1="236.5686" y2="246.5686" x1="456.5686" stroke-width="5.0"/><line x2="456.5686" stroke="black" y1="246.5686" y2="256.5686" x1="456.5686" stroke-width="5.0"/><line x2="449.49753" stroke="black" y1="256.5686" y2="263.63968" x1="456.5686" stroke-width="5.0"/><line x2="442.42645" stroke="black" y1="263.63968" y2="270.71075" x1="449.49753" stroke-width="5.0"/><line x2="432.42645" stroke="black" y1="270.71075" y2="270.71075" x1="442.42645" stroke-width="5.0"/><circle fill="green" cx="425.35538" r="5.0" cy="263.63968"/><line x2="425.35538" stroke="black" y1="270.71075" y2="263.63968" x1="432.42645" stroke-width="5.0"/><circle fill="green" cx="425.35538" r="5.0" cy="277.78183"/><line x2="425.35538" stroke="black" y1="270.71075" y2="277.78183" x1="432.42645" stroke-width="5.0"/><line x2="442.42645" stroke="black" y1="270.71075" y2="280.71075" x1="442.42645" stroke-width="5.0"/><circle fill="green" cx="435.35538" r="5.0" cy="287.78183"/><line x2="435.35538" stroke="black" y1="280.71075" y2="287.78183" x1="442.42645" stroke-width="5.0"/><circle fill="green" cx="449.49753" r="5.0" cy="287.78183"/><line x2="449.49753" stroke="black" y1="280.71075" y2="287.78183" x1="442.42645" stroke-width="5.0"/><line x2="463.63968" stroke="black" y1="256.5686" y2="263.63968" x1="456.5686" stroke-width="5.0"/><line x2="470.71075" stroke="black" y1="263.63968" y2="270.71075" x1="463.63968" stroke-width="5.0"/><line x2="470.71075" stroke="black" y1="270.71075" y2="280.71075" x1="470.71075" stroke-width="5.0"/><circle fill="green" cx="463.63968" r="5.0" cy="287.78183"/><line x2="463.63968" stroke="black" y1="280.71075" y2="287.78183" x1="470.71075" stroke-width="5.0"/><circle fill="green" cx="477.78183" r="5.0" cy="287.78183"/><line x2="477.78183" stroke="black" y1="280.71075" y2="287.78183" x1="470.71075" stroke-width="5.0"/><line x2="480.71075" stroke="black" y1="270.71075" y2="270.71075" x1="470.71075" stroke-width="5.0"/><circle fill="green" cx="487.78183" r="5.0" cy="277.78183"/><line x2="487.78183" stroke="black" y1="270.71075" y2="277.78183" x1="480.71075" stroke-width="5.0"/><circle fill="green" cx="487.78183" r="5.0" cy="263.63968"/><line x2="487.78183" stroke="black" y1="270.71075" y2="263.63968" x1="480.71075" stroke-width="5.0"/><line x2="466.5686" stroke="black" y1="216.5686" y2="216.5686" x1="456.5686" stroke-width="5.0"/><line x2="476.5686" stroke="black" y1="216.5686" y2="216.5686" x1="466.5686" stroke-width="5.0"/><line x2="486.5686" stroke="black" y1="216.5686" y2="216.5686" x1="476.5686" stroke-width="5.0"/><line x2="496.5686" stroke="black" y1="216.5686" y2="216.5686" x1="486.5686" stroke-width="5.0"/><line x2="503.63968" stroke="black" y1="216.5686" y2="223.63968" x1="496.5686" stroke-width="5.0"/><line x2="510.71075" stroke="black" y1="223.63968" y2="230.71075" x1="503.63968" stroke-width="5.0"/><line x2="510.71075" stroke="black" y1="230.71075" y2="240.71075" x1="510.71075" stroke-width="5.0"/><circle fill="green" cx="503.63968" r="5.0" cy="247.78183"/><line x2="503.63968" stroke="black" y1="240.71075" y2="247.78183" x1="510.71075" stroke-width="5.0"/><circle fill="green" cx="517.7818" r="5.0" cy="247.78183"/><line x2="517.7818" stroke="black" y1="240.71075" y2="247.78183" x1="510.71075" stroke-width="5.0"/><line x2="520.71075" stroke="black" y1="230.71075" y2="230.71075" x1="510.71075" stroke-width="5.0"/><circle fill="green" cx="527.7818" r="5.0" cy="237.78183"/><line x2="527.7818" stroke="black" y1="230.71075" y2="237.78183" x1="520.71075" stroke-width="5.0"/><circle fill="green" cx="527.7818" r="5.0" cy="223.63968"/><line x2="527.7818" stroke="black" y1="230.71075" y2="223.63968" x1="520.71075" stroke-width="5.0"/><line x2="503.63968" stroke="black" y1="216.5686" y2="209.49753" x1="496.5686" stroke-width="5.0"/><line x2="510.71075" stroke="black" y1="209.49753" y2="202.42645" x1="503.63968" stroke-width="5.0"/><line x2="520.71075" stroke="black" y1="202.42645" y2="202.42645" x1="510.71075" stroke-width="5.0"/><circle fill="green" cx="527.7818" r="5.0" cy="209.49753"/><line x2="527.7818" stroke="black" y1="202.42645" y2="209.49753" x1="520.71075" stroke-width="5.0"/><circle fill="green" cx="527.7818" r="5.0" cy="195.35538"/><line x2="527.7818" stroke="black" y1="202.42645" y2="195.35538" x1="520.71075" stroke-width="5.0"/><line x2="510.71075" stroke="black" y1="202.42645" y2="192.42645" x1="510.71075" stroke-width="5.0"/><circle fill="green" cx="517.7818" r="5.0" cy="185.35538"/><line x2="517.7818" stroke="black" y1="192.42645" y2="185.35538" x1="510.71075" stroke-width="5.0"/><circle fill="green" cx="503.63968" r="5.0" cy="185.3554"/><line x2="503.63968" stroke="black" y1="192.42645" y2="185.3554" x1="510.71075" stroke-width="5.0"/></svg>