<?xml version="1.0" encoding="UTF-8"?>
<!DOCTYPE svg PUBLIC "-//W3C//DTD SVG 1.1//EN"
    "http://www.w3.org/Graphics/SVG/1.1/DTD/svg11.dtd"><svg xmlns="http://www.w3.org/2000/svg" width="800.0" height="800.0" version="1.11.1" xmlns:xlink="http://www.w3.org/1999/xlink"><rect fill="white" y="0" x="0" width="800.0" height="800.0"/><line x2="400.0" stroke="black" y1="0.0" y2="10.0" x1="400.0" stroke-width="5.0"/><line x2="400.0" stroke="black" y1="10.0" y2="20.0" x1="400.0" stroke-width="5.0"/><line x2="400.0" stroke="black" y1="20.0" y2="30.0" x1="400.0" stroke-width="5.0"/><line x2="400.0" stroke="black" y1="30.0" y2="40.0" x1="400.0" stroke-width="5.0"/><line x2="392.92892" stroke="black" y1="40.0" y2="47.071068" x1="400.0" stroke-width="5.0"/><line x2="385.85785" stroke="black" y1="47.071068" y2="54.142136" x1="392.92892" stroke-width="5.0"/><line x2="375.85785" stroke="black" y1="54.142136" y2="54.142136" x1="385.85785" stroke-width="5.0"/><circle fill="green" cx="368.78677" r="5.0" cy="47.071068"/><line x2="368.78677" stroke="black" y1="54.142136" y2="47.071068" x1="375.85785" stroke-width="5.0"/><circle fill="green" cx="368.78677" r="5.0" cy="61.213203"/><line x2="368.78677" stroke="black" y1="54.142136" y2="61.213203" x1="375.85785" stroke-width="5.0"/><line x2="385.85785" stroke="black" y1="54.142136" y2="64.142136" x1="385.85785" stroke-width="5.0"/><circle fill="green" cx="378.78677" r="5.0" cy="71.2132"/><line x2="378.78677" stroke="black" y1="64.142136" y2="71.2132" x1="385.85785" stroke-width="5.0"/><circle fill="green" cx="392.92892" r="5.0" cy="71.2132"/><line x2="392.92892" stroke="black" y1="64.142136" y2="71.2132" x1="385.85785" stroke-width="5.0"/><line x2="407.07108" stroke="black" y1="40.0" y2="47.071068" x1="400.0" stroke-width="5.0"/><line x2="414.14215" stroke="black" y1="47.071068" y2="54.142136" x1="407.07108" stroke-width="5.0"/><line x2="414.14215" stroke="black" y1="54.142136" y2="64.142136" x1="414.14215" stroke-width="5.0"/><circle fill="green" cx="407.07108" r="5.0" cy="71.2132"/><line x2="407.07108" stroke="black" y1="64.142136" y2="71.2132" x1="414.14215" stroke-width="5.0"/><circle fill="green" cx="421.21323" r="5.0" cy="71.2132"/><line x2="421.21323" stroke="black" y1="64.142136" y2="71.2132" x1="414.14215" stroke-width="5.0"/><line x2="424.14215" stroke="black" y1="54.142136" y2="54.142136" x1="414.14215" stroke-width="5.0"/><circle fill="green" cx="431.21323" r="5.0" cy="61.213203"/><line x2="431.21323" stroke="black" y1="54.142136" y2="61.213203" x1="424.14215" stroke-width="5.0"/><circle fill="green" cx="431.21323" r="5.0" cy="47.071068"/><line x2="431.21323" stroke="black" y1="54.142136" y2="47.071068" x1="424.14215" stroke-width="5.0"/></svg>