<?xml version="1.0" encoding="UTF-8"?>
<!DOCTYPE svg PUBLIC "-//W3C//DTD SVG 1.1//EN"
    "http://www.w3.org/Graphics/SVG/1.1/DTD/svg11.dtd"><svg xmlns="http://www.w3.org/2000/svg" width="800.0" height="800.0" version="1.11.1" xmlns:xlink="http://www.w3.org/1999/xlink"><rect fill="white" y="0" x="0" width="800.0" height="800.0"/><line x2="400.0" stroke="black" y1="0.0" y2="10.0" x1="400.0" stroke-width="5.0"/><line x2="400.0" stroke="black" y1="10.0" y2="20.0" x1="400.0" stroke-width="5.0"/><line x2="400.0" stroke="black" y1="20.0" y2="30.0" x1="400.0" stroke-width="5.0"/><line x2="400.0" stroke="black" y1="30.0" y2="40.0" x1="400.0" stroke-width="5.0"/><line x2="400.0" stroke="black" y1="40.0" y2="50.0" x1="400.0" stroke-width="5.0"/><line x2="400.0" stroke="black" y1="50.0" y2="60.0" x1="400.0" stroke-width="5.0"/><line x2="400.0" stroke="black" y1="60.0" y2="70.0" x1="400.0" stroke-width="5.0"/><line x2="400.0" stroke="black" y1="70.0" y2="80.0" x1="400.0" stroke-width="5.0"/><line x2="392.92892" stroke="black" y1="80.0" y2="87.07107" x1="400.0" stroke-width="5.0"/><line x2="385.85785" stroke="black" y1="87.07107" y2="94.142136" x1="392.92892" stroke-width="5.0"/><line x2="378.78677" stroke="black" y1="94.142136" y2="101.2132" x1="385.85785" stroke-width="5.0"/><line x2="371.7157" stroke="black" y1="101.2132" y2="108.28427" x1="378.78677" stroke-width="5.0"/><line x2="361.7157" stroke="black" y1="108.28427" y2="108.28427" x1="371.7157" stroke-width="5.0"/><line x2="351.7157" stroke="black" y1="108.28427" y2="108.28427" x1="361.7157" stroke-width="5.0"/><line x2="344.64462" stroke="black" y1="108.28427" y2="101.2132" x1="351.7157" stroke-width="5.0"/><circle fill="green" cx="344.64462" r="5.0" cy="91.2132"/><line x2="344.64462" stroke="black" y1="101.2132" y2="91.2132" x1="344.64462" stroke-width="5.0"/><circle fill="green" cx="334.64462" r="5.0" cy="101.2132"/><line x2="334.64462" stroke="black" y1="101.2132" y2="101.2132" x1="344.64462" stroke-width="5.0"/><line x2="344.64462" stroke="black" y1="108.28427" y2="115.35534" x1="351.7157" stroke-width="5.0"/><circle fill="green" cx="334.64462" r="5.0" cy="115.35534"/><line x2="334.64462" stroke="black" y1="115.35534" y2="115.35534" x1="344.64462" stroke-width="5.0"/><circle fill="green" cx="344.64462" r="5.0" cy="125.35534"/><line x2="344.64462" stroke="black" y1="115.35534" y2="125.35534" x1="344.64462" stroke-width="5.0"/><line x2="371.7157" stroke="black" y1="108.28427" y2="118.28427" x1="371.7157" stroke-width="5.0"/><line x2="371.7157" stroke="black" y1="118.28427" y2="128.28427" x1="371.7157" stroke-width="5.0"/><line x2="364.64462" stroke="black" y1="128.28427" y2="135.35535" x1="371.7157" stroke-width="5.0"/><circle fill="green" cx="354.64462" r="5.0" cy="135.35535"/><line x2="354.64462" stroke="black" y1="135.35535" y2="135.35535" x1="364.64462" stroke-width="5.0"/><circle fill="green" cx="364.64462" r="5.0" cy="145.35535"/><line x2="364.64462" stroke="black" y1="135.35535" y2="145.35535" x1="364.64462" stroke-width="5.0"/><line x2="378.78677" stroke="black" y1="128.28427" y2="135.35535" x1="371.7157" stroke-width="5.0"/><circle fill="green" cx="378.78677" r="5.0" cy="145.35535"/><line x2="378.78677" stroke="black" y1="135.35535" y2="145.35535" x1="378.78677" stroke-width="5.0"/><circle fill="green" cx="388.78677" r="5.0" cy="135.35535"/><line x2="388.78677" stroke="black" y1="135.35535" y2="135.35535" x1="378.78677" stroke-width="5.0"/><line x2="407.07108" stroke="black" y1="80.0" y2="87.07107" x1="400.0" stroke-width="5.0"/><line x2="414.14215" stroke="black" y1="87.07107" y2="94.142136" x1="407.07108" stroke-width="5.0"/><line x2="421.21323" stroke="black" y1="94.142136" y2="101.2132" x1="414.14215" stroke-width="5.0"/><line x2="428.2843" stroke="black" y1="101.2132" y2="108.28427" x1="421.21323" stroke-width="5.0"/><line x2="428.2843" stroke="black" y1="108.28427" y2="118.28427" x1="428.2843" stroke-width="5.0"/><line x2="428.2843" stroke="black" y1="118.28427" y2="128.28427" x1="428.2843" stroke-width="5.0"/><line x2="421.21323" stroke="black" y1="128.28427" y2="135.35535" x1="428.2843" stroke-width="5.0"/><circle fill="green" cx="411.21323" r="5.0" cy="135.35535"/><line x2="411.21323" stroke="black" y1="135.35535" y2="135.35535" x1="421.21323" stroke-width="5.0"/><circle fill="green" cx="421.21323" r="5.0" cy="145.35535"/><line x2="421.21323" stroke="black" y1="135.35535" y2="145.35535" x1="421.21323" stroke-width="5.0"/><line x2="435.35538" stroke="black" y1="128.28427" y2="135.35535" x1="428.2843" stroke-width="5.0"/><circle fill="green" cx="435.35538" r="5.0" cy="145.35535"/><line x2="435.35538" stroke="black" y1="135.35535" y2="145.35535" x1="435.35538" stroke-width="5.0"/><circle fill="green" cx="445.35538" r="5.0" cy="135.35535"/><line x2="445.35538" stroke="black" y1="135.35535" y2="135.35535" x1="435.35538" stroke-width="5.0"/><line x2="438.2843" stroke="black" y1="108.28427" y2="108.28427" x1="428.2843" stroke-width="5.0"/><line x2="448.2843" stroke="black" y1="108.28427" y2="108.28427" x1="438.2843" stroke-width="5.0"/><line x2="455.35538" stroke="black" y1="108.28427" y2="115.35534" x1="448.2843" stroke-width="5.0"/><circle fill="green" cx="455.35538" r="5.0" cy="125.35534"/><line x2="455.35538" stroke="black" y1="115.35534" y2="125.35534" x1="455.35538" stroke-width="5.0"/><circle fill="green" cx="465.35538" r="5.0" cy="115.35534"/><line x2="465.35538" stroke="black" y1="115.35534" y2="115.35534" x1="455.35538" stroke-width="5.0"/><line x2="455.35538" stroke="black" y1="108.28427" y2="101.2132" x1="448.2843" stroke-width="5.0"/><circle fill="green" cx="465.35538" r="5.0" cy="101.2132"/><line x2="465.35538" stroke="black" y1="101.2132" y2="101.2132" x1="455.35538" stroke-width="5.0"/><circle fill="green" cx="455.35538" r="5.0" cy="91.2132"/><line x2="455.35538" stroke="black" y1="101.2132" y2="91.2132" x1="455.35538" stroke-width="5.0"/></svg>