<?xml version="1.0" encoding="UTF-8"?>
<!DOCTYPE svg PUBLIC "-//W3C//DTD SVG 1.1//EN"
    "http://www.w3.org/Graphics/SVG/1.1/DTD/svg11.dtd"><svg xmlns="http://www.w3.org/2000/svg" width="800.0" height="800.0" version="1.11.1" xmlns:xlink="http://www.w3.org/1999/xlink"><rect fill="white" y="0" x="0" width="800.0" height="800.0"/><line x2="400.0" stroke="blue" y1="0.0" y2="20.0" x1="400.0" stroke-width="5.0"/><line x2="420.0" stroke="blue" y1="20.0" y2="20.0" x1="400.0" stroke-width="5.0"/><line x2="420.0" stroke="blue" y1="20.0" y2="40.0" x1="420.0" stroke-width="5.0"/><line x2="400.0" stroke="blue" y1="40.0" y2="40.0" x1="420.0" stroke-width="5.0"/><line x2="400.0" stroke="blue" y1="40.0" y2="60.0" x1="400.0" stroke-width="5.0"/><line x2="420.0" stroke="blue" y1="60.0" y2="60.0" x1="400.0" stroke-width="5.0"/><line x2="420.0" stroke="blue" y1="60.0" y2="40.0" x1="420.0" stroke-width="5.0"/><line x2="440.0" stroke="blue" y1="40.0" y2="40.0" x1="420.0" stroke-width="5.0"/><line x2="440.0" stroke="blue" y1="40.0" y2="60.0" x1="440.0" stroke-width="5.0"/><line x2="460.0" stroke="blue" y1="60.0" y2="60.0" x1="440.0" stroke-width="5.0"/><line x2="460.0" stroke="blue" y1="60.0" y2="80.0" x1="460.0" stroke-width="5.0"/><line x2="480.0" stroke="blue" y1="80.0" y2="80.0" x1="460.0" stroke-width="5.0"/><line x2="480.0" stroke="blue" y1="80.0" y2="100.0" x1="480.0" stroke-width="5.0"/><line x2="460.0" stroke="blue" y1="100.0" y2="100.0" x1="480.0" stroke-width="5.0"/><line x2="460.0" stroke="blue" y1="100.0" y2="120.0" x1="460.0" stroke-width="5.0"/><line x2="440.0" stroke="blue" y1="120.0" y2="120.0" x1="460.0" stroke-width="5.0"/><line x2="440.0" stroke="blue" y1="120.0" y2="140.0" x1="440.0" stroke-width="5.0"/><line x2="420.0" stroke="blue" y1="140.0" y2="140.0" x1="440.0" stroke-width="5.0"/><line x2="420.0" stroke="blue" y1="140.0" y2="120.0" x1="420.0" stroke-width="5.0"/><line x2="400.0" stroke="blue" y1="120.0" y2="120.0" x1="420.0" stroke-width="5.0"/><line x2="400.0" stroke="blue" y1="120.0" y2="140.0" x1="400.0" stroke-width="5.0"/><line x2="420.0" stroke="blue" y1="140.0" y2="140.0" x1="400.0" stroke-width="5.0"/><line x2="420.0" stroke="blue" y1="140.0" y2="160.0" x1="420.0" stroke-width="5.0"/><line x2="400.0" stroke="blue" y1="160.0" y2="160.0" x1="420.0" stroke-width="5.0"/><line x2="400.0" stroke="blue" y1="160.0" y2="180.0" x1="400.0" stroke-width="5.0"/><line x2="420.0" stroke="blue" y1="180.0" y2="180.0" x1="400.0" stroke-width="5.0"/><line x2="420.0" stroke="blue" y1="180.0" y2="160.0" x1="420.0" stroke-width="5.0"/><line x2="440.0" stroke="blue" y1="160.0" y2="160.0" x1="420.0" stroke-width="5.0"/><line x2="440.0" stroke="blue" y1="160.0" y2="180.0" x1="440.0" stroke-width="5.0"/><line x2="460.0" stroke="blue" y1="180.0" y2="180.0" x1="440.0" stroke-width="5.0"/><line x2="460.0" stroke="blue" y1="180.0" y2="160.0" x1="460.0" stroke-width="5.0"/><line x2="440.0" stroke="blue" y1="160.0" y2="160.0" x1="460.0" stroke-width="5.0"/><line x2="440.0" stroke="blue" y1="160.0" y2="140.0" x1="440.0" stroke-width="5.0"/><line x2="460.0" stroke="blue" y1="140.0" y2="140.0" x1="440.0" stroke-width="5.0"/><line x2="460.0" stroke="blue" y1="140.0" y2="120.0" x1="460.0" stroke-width="5.0"/><line x2="480.0" stroke="blue" y1="120.0" y2="120.00001" x1="460.0" stroke-width="5.0"/><line x2="480.0" stroke="blue" y1="120.00001" y2="100.00001" x1="480.0" stroke-width="5.0"/><line x2="500.0" stroke="blue" y1="100.00001" y2="100.000015" x1="480.0" stroke-width="5.0"/><line x2="500.0" stroke="blue" y1="100.000015" y2="120.000015" x1="500.0" stroke-width="5.0"/><line x2="520.0" stroke="blue" y1="120.000015" y2="120.00002" x1="500.0" stroke-width="5.0"/><line x2="520.0" stroke="blue" y1="120.00002" y2="140.00003" x1="520.0" stroke-width="5.0"/><line x2="540.0" stroke="blue" y1="140.00003" y2="140.00003" x1="520.0" stroke-width="5.0"/><line x2="540.0" stroke="blue" y1="140.00003" y2="160.00003" x1="540.0" stroke-width="5.0"/><line x2="520.0" stroke="blue" y1="160.00003" y2="160.00003" x1="540.0" stroke-width="5.0"/><line x2="520.0" stroke="blue" y1="160.00003" y2="180.00003" x1="520.0" stroke-width="5.0"/><line x2="540.0" stroke="blue" y1="180.00003" y2="180.00003" x1="520.0" stroke-width="5.0"/><line x2="540.0" stroke="blue" y1="180.00003" y2="160.00003" x1="540.0" stroke-width="5.0"/><line x2="560.0" stroke="blue" y1="160.00003" y2="160.00003" x1="540.0" stroke-width="5.0"/><line x2="560.0" stroke="blue" y1="160.00003" y2="180.00003" x1="560.0" stroke-width="5.0"/><line x2="580.0" stroke="blue" y1="180.00003" y2="180.00003" x1="560.0" stroke-width="5.0"/><line x2="580.0" stroke="blue" y1="180.00003" y2="200.00003" x1="580.0" stroke-width="5.0"/><line x2="600.0" stroke="blue" y1="200.00003" y2="200.00003" x1="580.0" stroke-width="5.0"/><line x2="600.0" stroke="blue" y1="200.00003" y2="220.00003" x1="600.0" stroke-width="5.0"/><line x2="580.0" stroke="blue" y1="220.00003" y2="220.00003" x1="600.0" stroke-width="5.0"/><line x2="580.0" stroke="blue" y1="220.00003" y2="240.00003" x1="580.0" stroke-width="5.0"/><line x2="600.0" stroke="blue" y1="240.00003" y2="240.00003" x1="580.0" stroke-width="5.0"/><line x2="600.0" stroke="blue" y1="240.00003" y2="220.00003" x1="600.0" stroke-width="5.0"/><line x2="620.0" stroke="blue" y1="220.00003" y2="220.00003" x1="600.0" stroke-width="5.0"/><line x2="620.0" stroke="blue" y1="220.00003" y2="240.00003" x1="620.0" stroke-width="5.0"/><line x2="640.0" stroke="blue" y1="240.00003" y2="240.00003" x1="620.0" stroke-width="5.0"/><line x2="640.0" stroke="blue" y1="240.00003" y2="260.00003" x1="640.0" stroke-width="5.0"/><line x2="660.0" stroke="blue" y1="260.00003" y2="260.00003" x1="640.0" stroke-width="5.0"/><line x2="660.0" stroke="blue" y1="260.00003" y2="280.00003" x1="660.0" stroke-width="5.0"/><line x2="640.0" stroke="blue" y1="280.00003" y2="280.00003" x1="660.0" stroke-width="5.0"/><line x2="640.0" stroke="blue" y1="280.00003" y2="300.00003" x1="640.0" stroke-width="5.0"/><line x2="620.0" stroke="blue" y1="300.00003" y2="300.00003" x1="640.0" stroke-width="5.0"/><line x2="620.0" stroke="blue" y1="300.00003" y2="320.00003" x1="620.0" stroke-width="5.0"/><line x2="600.0" stroke="blue" y1="320.00003" y2="320.00003" x1="620.0" stroke-width="5.0"/><line x2="600.0" stroke="blue" y1="320.00003" y2="300.00003" x1="600.0" stroke-width="5.0"/><line x2="580.0" stroke="blue" y1="300.00003" y2="300.00003" x1="600.0" stroke-width="5.0"/><line x2="580.0" stroke="blue" y1="300.00003" y2="320.00003" x1="580.0" stroke-width="5.0"/><line x2="600.0" stroke="blue" y1="320.00003" y2="320.00003" x1="580.0" stroke-width="5.0"/><line x2="600.0" stroke="blue" y1="320.00003" y2="340.00003" x1="600.0" stroke-width="5.0"/><line x2="580.0" stroke="blue" y1="340.00003" y2="340.00003" x1="600.0" stroke-width="5.0"/><line x2="580.0" stroke="blue" y1="340.00003" y2="360.00003" x1="580.0" stroke-width="5.0"/><line x2="560.0" stroke="blue" y1="360.00003" y2="360.00003" x1="580.0" stroke-width="5.0"/><line x2="560.0" stroke="blue" y1="360.00003" y2="380.00003" x1="560.0" stroke-width="5.0"/><line x2="540.0" stroke="blue" y1="380.00003" y2="380.00003" x1="560.0" stroke-width="5.0"/><line x2="540.0" stroke="blue" y1="380.00003" y2="360.00003" x1="540.0" stroke-width="5.0"/><line x2="520.0" stroke="blue" y1="360.00003" y2="360.00003" x1="540.0" stroke-width="5.0"/><line x2="520.0" stroke="blue" y1="360.00003" y2="380.00003" x1="520.0" stroke-width="5.0"/><line x2="540.0" stroke="blue" y1="380.00003" y2="380.00003" x1="520.0" stroke-width="5.0"/><line x2="540.0" stroke="blue" y1="380.00003" y2="400.00003" x1="540.0" stroke-width="5.0"/><line x2="520.0" stroke="blue" y1="400.00003" y2="400.00003" x1="540.0" stroke-width="5.0"/><line x2="520.0" stroke="blue" y1="400.00003" y2="420.00003" x1="520.0" stroke-width="5.0"/><line x2="500.0" stroke="blue" y1="420.00003" y2="420.00003" x1="520.0" stroke-width="5.0"/><line x2="500.0" stroke="blue" y1="420.00003" y2="440.00003" x1="500.0" stroke-width="5.0"/><line x2="480.0" stroke="blue" y1="440.00003" y2="440.00003" x1="500.0" stroke-width="5.0"/><line x2="480.0" stroke="blue" y1="440.00003" y2="420.00003" x1="480.0" stroke-width="5.0"/><line x2="460.0" stroke="blue" y1="420.00003" y2="420.00003" x1="480.0" stroke-width="5.0"/><line x2="460.0" stroke="blue" y1="420.00003" y2="400.00003" x1="460.0" stroke-width="5.0"/><line x2="440.0" stroke="blue" y1="400.00003" y2="400.00003" x1="460.0" stroke-width="5.0"/><line x2="440.0" stroke="blue" y1="400.00003" y2="380.00003" x1="440.0" stroke-width="5.0"/><line x2="460.0" stroke="blue" y1="380.00003" y2="380.00003" x1="440.0" stroke-width="5.0"/><line x2="460.0" stroke="blue" y1="380.00003" y2="360.00003" x1="460.0" stroke-width="5.0"/><line x2="440.0" stroke="blue" y1="360.00003" y2="360.00003" x1="460.0" stroke-width="5.0"/><line x2="440.0" stroke="blue" y1="360.00003" y2="380.00003" x1="440.0" stroke-width="5.0"/><line x2="420.0" stroke="blue" y1="380.00003" y2="380.00003" x1="440.0" stroke-width="5.0"/><line x2="420.0" stroke="blue" y1="380.00003" y2="360.00003" x1="420.0" stroke-width="5.0"/><line x2="400.0" stroke="blue" y1="360.00003" y2="360.00003" x1="420.0" stroke-width="5.0"/><line x2="400.0" stroke="blue" y1="360.00003" y2="380.00003" x1="400.0" stroke-width="5.0"/><line x2="420.0" stroke="blue" y1="380.00003" y2="380.00003" x1="400.0" stroke-width="5.0"/><line x2="420.0" stroke="blue" y1="380.00003" y2="400.00003" x1="420.0" stroke-width="5.0"/><line x2="400.0" stroke="blue" y1="400.00003" y2="400.00003" x1="420.0" stroke-width="5.0"/><line x2="400.0" stroke="blue" y1="400.00003" y2="420.00003" x1="400.0" stroke-width="5.0"/><line x2="420.0" stroke="blue" y1="420.00003" y2="420.00003" x1="400.0" stroke-width="5.0"/><line x2="420.0" stroke="blue" y1="420.00003" y2="400.00003" x1="420.0" stroke-width="5.0"/><line x2="440.0" stroke="blue" y1="400.00003" y2="400.00003" x1="420.0" stroke-width="5.0"/><line x2="440.0" stroke="blue" y1="400.00003" y2="420.00003" x1="440.0" stroke-width="5.0"/><line x2="460.0" stroke="blue" y1="420.00003" y2="420.00003" x1="440.0" stroke-width="5.0"/><line x2="460.0" stroke="blue" y1="420.00003" y2="440.00003" x1="460.0" stroke-width="5.0"/><line x2="480.0" stroke="blue" y1="440.00003" y2="440.00003" x1="460.0" stroke-width="5.0"/><line x2="480.0" stroke="blue" y1="440.00003" y2="460.00003" x1="480.0" stroke-width="5.0"/><line x2="460.0" stroke="blue" y1="460.00003" y2="460.00003" x1="480.0" stroke-width="5.0"/><line x2="460.0" stroke="blue" y1="460.00003" y2="480.00003" x1="460.0" stroke-width="5.0"/><line x2="440.0" stroke="blue" y1="480.00003" y2="480.00003" x1="460.0" stroke-width="5.0"/><line x2="440.0" stroke="blue" y1="480.00003" y2="500.00003" x1="440.0" stroke-width="5.0"/><line x2="420.0" stroke="blue" y1="500.00003" y2="500.00003" x1="440.0" stroke-width="5.0"/><line x2="420.0" stroke="blue" y1="500.00003" y2="480.00003" x1="420.0" stroke-width="5.0"/><line x2="400.0" stroke="blue" y1="480.00003" y2="480.00003" x1="420.0" stroke-width="5.0"/><line x2="400.0" stroke="blue" y1="480.00003" y2="500.00003" x1="400.0" stroke-width="5.0"/><line x2="420.0" stroke="blue" y1="500.00003" y2="500.00003" x1="400.0" stroke-width="5.0"/><line x2="420.0" stroke="blue" y1="500.00003" y2="520.0" x1="420.0" stroke-width="5.0"/><line x2="400.0" stroke="blue" y1="520.0" y2="520.0" x1="420.0" stroke-width="5.0"/><line x2="400.0" stroke="blue" y1="520.0" y2="540.0" x1="400.0" stroke-width="5.0"/></svg>