<?xml version="1.0" encoding="UTF-8"?>
<!DOCTYPE svg PUBLIC "-//W3C//DTD SVG 1.1//EN"
    "http://www.w3.org/Graphics/SVG/1.1/DTD/svg11.dtd"><svg xmlns="http://www.w3.org/2000/svg" width="800.0" height="800.0" version="1.11.1" xmlns:xlink="http://www.w3.org/1999/xlink"><rect fill="white" y="0" x="0" width="800.0" height="800.0"/><line x2="400.0" stroke="blue" y1="0.0" y2="20.0" x1="400.0" stroke-width="5.0"/><line x2="420.0" stroke="blue" y1="20.0" y2="20.0" x1="400.0" stroke-width="5.0"/><line x2="420.0" stroke="blue" y1="20.0" y2="40.0" x1="420.0" stroke-width="5.0"/><line x2="400.0" stroke="blue" y1="40.0" y2="40.0" x1="420.0" stroke-width="5.0"/><line x2="400.0" stroke="blue" y1="40.0" y2="60.0" x1="400.0" stroke-width="5.0"/><line x2="420.0" stroke="blue" y1="60.0" y2="60.0" x1="400.0" stroke-width="5.0"/><line x2="420.0" stroke="blue" y1="60.0" y2="40.0" x1="420.0" stroke-width="5.0"/><line x2="440.0" stroke="blue" y1="40.0" y2="40.0" x1="420.0" stroke-width="5.0"/><line x2="440.0" stroke="blue" y1="40.0" y2="60.0" x1="440.0" stroke-width="5.0"/><line x2="460.0" stroke="blue" y1="60.0" y2="60.0" x1="440.0" stroke-width="5.0"/><line x2="460.0" stroke="blue" y1="60.0" y2="80.0" x1="460.0" stroke-width="5.0"/><line x2="480.0" stroke="blue" y1="80.0" y2="80.0" x1="460.0" stroke-width="5.0"/><line x2="480.0" stroke="blue" y1="80.0" y2="100.0" x1="480.0" stroke-width="5.0"/><line x2="460.0" stroke="blue" y1="100.0" y2="100.0" x1="480.0" stroke-width="5.0"/><line x2="460.0" stroke="blue" y1="100.0" y2="120.0" x1="460.0" stroke-width="5.0"/><line x2="440.0" stroke="blue" y1="120.0" y2="120.0" x1="460.0" stroke-width="5.0"/><line x2="440.0" stroke="blue" y1="120.0" y2="140.0" x1="440.0" stroke-width="5.0"/><line x2="420.0" stroke="blue" y1="140.0" y2="140.0" x1="440.0" stroke-width="5.0"/><line x2="420.0" stroke="blue" y1="140.0" y2="120.0" x1="420.0" stroke-width="5.0"/><line x2="400.0" stroke="blue" y1="120.0" y2="120.0" x1="420.0" stroke-width="5.0"/><line x2="400.0" stroke="blue" y1="120.0" y2="140.0" x1="400.0" stroke-width="5.0"/><line x2="420.0" stroke="blue" y1="140.0" y2="140.0" x1="400.0" stroke-width="5.0"/><line x2="420.0" stroke="blue" y1="140.0" y2="160.0" x1="420.0" stroke-width="5.0"/><line x2="400.0" stroke="blue" y1="160.0" y2="160.0" x1="420.0" stroke-width="5.0"/><line x2="400.0" stroke="blue" y1="160.0" y2="180.0" x1="400.0" stroke-width="5.0"/></svg>